<?xml version="1.0" standalone="no"?>
<!DOCTYPE svg PUBLIC "-//W3C//DTD SVG 20010904//EN"
 "http://www.w3.org/TR/2001/REC-SVG-20010904/DTD/svg10.dtd">
<svg version="1.0" xmlns="http://www.w3.org/2000/svg"
 width="940.000000pt" height="940.000000pt" viewBox="0 0 940.000000 940.000000"
 preserveAspectRatio="xMidYMid meet">
<metadata>
Created by potrace 1.14, written by Peter Selinger 2001-2017
</metadata>
<g transform="translate(0.000000,940.000000) scale(0.100000,-0.100000)"
fill="#000000" stroke="none">
<path d="M4449 9396 c-2 -2 -49 -6 -104 -10 -55 -3 -111 -8 -125 -11 -14 -2
-52 -6 -85 -9 -33 -4 -71 -8 -85 -10 -36 -7 -102 -17 -125 -20 -11 -2 -33 -6
-50 -9 -16 -4 -44 -9 -61 -12 -57 -9 -291 -64 -385 -90 -96 -27 -348 -109
-384 -125 -11 -5 -83 -35 -160 -66 -245 -100 -511 -242 -775 -412 -112 -73
-352 -251 -426 -317 -6 -5 -37 -32 -70 -60 -32 -27 -98 -88 -147 -135 -78 -75
-121 -117 -240 -242 -114 -120 -327 -395 -449 -578 -74 -113 -202 -331 -247
-420 -12 -25 -26 -52 -31 -60 -62 -99 -287 -670 -315 -800 -2 -8 -22 -87 -44
-175 -39 -153 -74 -325 -87 -424 -3 -25 -7 -57 -10 -71 -3 -14 -7 -47 -9 -75
-3 -27 -7 -63 -10 -80 -13 -79 -19 -243 -20 -480 0 -291 9 -440 40 -647 3 -21
7 -55 10 -75 3 -21 17 -99 31 -173 22 -120 40 -194 98 -413 26 -99 105 -327
163 -467 251 -613 633 -1177 1097 -1619 32 -31 69 -66 81 -78 46 -45 280 -237
358 -294 45 -33 90 -66 99 -74 37 -31 260 -172 373 -237 104 -61 455 -238 469
-238 3 0 29 -11 58 -24 167 -75 458 -170 701 -230 100 -25 198 -47 217 -50 19
-3 62 -10 95 -16 59 -10 101 -17 160 -25 17 -2 46 -7 65 -9 277 -41 876 -42
1150 -2 19 3 55 8 80 11 63 8 97 14 155 25 28 5 64 12 80 15 65 11 117 22 235
50 190 46 500 146 643 208 17 8 52 22 77 32 77 31 402 191 460 227 30 18 58
35 62 36 18 6 109 63 241 151 275 182 467 340 717 591 196 196 291 304 449
515 485 645 810 1460 896 2245 4 30 8 66 11 80 26 162 26 822 -1 960 -2 11 -6
48 -10 83 -5 54 -35 256 -50 327 -2 14 -7 39 -11 55 -28 141 -105 433 -139
525 -7 19 -30 82 -50 140 -21 58 -44 119 -51 135 -141 334 -235 515 -415 805
-45 73 -60 93 -192 270 -98 132 -102 137 -212 264 -184 213 -378 399 -608 585
-110 89 -351 261 -365 261 -6 0 -12 4 -14 9 -11 30 -476 281 -683 370 -55 23
-109 47 -120 52 -90 41 -392 140 -580 188 -175 46 -396 90 -530 106 -27 3 -61
8 -75 10 -14 2 -56 7 -95 11 -38 3 -81 8 -95 11 -30 5 -626 13 -631 9z"/>
</g>
</svg>
